Coordinates
version=1
nRows=8
nColumns=40
inDegrees=yes
endheader
time	pelvis_tilt	pelvis_list	pelvis_rotation	pelvis_tx	pelvis_ty	pelvis_tz	hip_flexion_r	hip_adduction_r	hip_rotation_r	knee_angle_r	knee_angle_r_beta	ankle_angle_r	subtalar_angle_r	mtp_angle_r	hip_flexion_l	hip_adduction_l	hip_rotation_l	knee_angle_l	knee_angle_l_beta	ankle_angle_l	subtalar_angle_l	mtp_angle_l	lumbar_extension	lumbar_bending	lumbar_rotation	arm_flex_r	arm_add_r	arm_rot_r	elbow_flex_r	pro_sup_r	wrist_flex_r	wrist_dev_r	arm_flex_l	arm_add_l	arm_rot_l	elbow_flex_l	pro_sup_l	wrist_flex_l	wrist_dev_l
1760624784.13659406	     12.65379604	     -1.84429251	      0.42849453	      0.19320489	      0.86657646	     -0.00173057	     80.00000000	     -7.00000000	      0.00000000	     80.00000000	      1.39626340	      0.00000000	      0.00000000	      0.00000000	     80.00000000	     -7.00000000	      0.00000000	     80.00000000	      1.39626340	      0.00000000	      0.00000000	      0.00000000	    -20.27174498	     -0.03960060	      3.65916105	      4.38098445	     -2.60854176	      8.94269454	      0.00000000	      0.00000000	    -70.00000021	    -24.99999983	      7.04758369	     -0.72460327	     -0.89515610	      0.00000000	     18.86431007	    -70.00000021	    -22.64787629
1760624784.14659405	     12.65446711	     -1.84469350	      0.42890899	      0.19317390	      0.86657198	     -0.00171309	     80.00000000	     -7.00000000	      0.00000000	     80.00000000	      1.39626340	      0.00000000	      0.00000000	      0.00000000	     80.00000000	     -7.00000000	      0.00000000	     80.00000000	      1.39626340	      0.00000000	      0.00000000	      0.00000000	    -20.27080610	     -0.04044452	      3.65944702	      4.38060402	     -2.60929818	      8.94270825	      0.00000000	      0.00000000	    -70.00000021	    -24.99999983	      7.04727899	     -0.72363841	     -0.89527462	      0.00000000	     18.86436693	    -70.00000021	    -22.64792218
1760624784.15659404	     12.65371601	     -1.84967629	      0.43566234	      0.19314711	      0.86663685	     -0.00169783	     80.00000000	     -7.00000000	      0.00000000	     80.00000000	      1.39626340	      0.00000000	      0.00000000	      0.00000000	     80.00000000	     -7.00000000	      0.00000000	     80.00000000	      1.39626340	      0.00000000	      0.00000000	      0.00000000	    -20.26278483	     -0.05229475	      3.66496086	      4.37833420	     -2.61711501	      8.94266271	      0.00000000	      0.00000000	    -70.00000021	    -24.99999983	      7.04765110	     -0.71305414	     -0.89637624	      0.00000000	     18.86574043	    -70.00000021	    -22.64879688
1760624784.16659403	     12.65381727	     -1.85002144	      0.43573431	      0.19313525	      0.86655777	     -0.00167606	     80.00000000	     -7.00000000	      0.00000000	     80.00000000	      1.39626340	      0.00000000	      0.00000000	      0.00000000	     80.00000000	     -7.00000000	      0.00000000	     80.00000000	      1.39626340	      0.00000000	      0.00000000	      0.00000000	    -20.26225167	     -0.05339900	      3.66493269	      4.37689738	     -2.61720794	      8.94255131	      0.00000000	      0.00000000	    -70.00000021	    -24.99999983	      7.04823895	     -0.71129797	     -0.89652013	      0.00000000	     18.86593308	    -70.00000021	    -22.64891641
1760624784.17659402	     12.65356383	     -1.85104243	      0.43599741	      0.19312887	      0.86653144	     -0.00166797	     80.00000000	     -7.00000000	      0.00000000	     80.00000000	      1.39626340	      0.00000000	      0.00000000	      0.00000000	     80.00000000	     -7.00000000	      0.00000000	     80.00000000	      1.39626340	      0.00000000	      0.00000000	      0.00000000	    -20.26222806	     -0.05480097	      3.66485032	      4.37595962	     -2.61726985	      8.94248041	      0.00000000	      0.00000000	    -70.00000021	    -24.99999983	      7.04841116	     -0.71009723	     -0.89661355	      0.00000000	     18.86600839	    -70.00000021	    -22.64896098
1760624784.18659401	     12.65283252	     -1.85837801	      0.43760185	      0.19311136	      0.86651539	     -0.00163190	     80.00000000	     -7.00000000	      0.00000000	     80.00000000	      1.39626340	      0.00000000	      0.00000000	      0.00000000	     80.00000000	     -7.00000000	      0.00000000	     80.00000000	      1.39626340	      0.00000000	      0.00000000	      0.00000000	    -20.25680900	     -0.06681895	      3.66460267	      4.36614341	     -2.61498753	      8.94155220	      0.00000000	      0.00000000	    -70.00000021	    -24.99999983	      7.05450007	     -0.69808447	     -0.89700314	      0.00000000	     18.86750966	    -70.00000021	    -22.64988239
1760624784.19659400	     12.65428631	     -1.85934104	      0.43789604	      0.19312622	      0.86645079	     -0.00164348	     80.00000000	     -7.00000000	      0.00000000	     80.00000000	      1.39626340	      0.00000000	      0.00000000	      0.00000000	     80.00000000	     -7.00000000	      0.00000000	     80.00000000	      1.39626340	      0.00000000	      0.00000000	      0.00000000	    -20.25498865	     -0.06856873	      3.66515772	      4.36464884	     -2.61452606	      8.94139773	      0.00000000	      0.00000000	    -70.00000021	    -24.99999983	      7.05522772	     -0.69636454	     -0.89709442	      0.00000000	     18.86779722	    -70.00000021	    -22.65005592
1760624784.20659399	     12.65490659	     -1.85985596	      0.43831005	      0.19311825	      0.86644911	     -0.00162973	     80.00000000	     -7.00000000	      0.00000000	     80.00000000	      1.39626340	      0.00000000	      0.00000000	      0.00000000	     80.00000000	     -7.00000000	      0.00000000	     80.00000000	      1.39626340	      0.00000000	      0.00000000	      0.00000000	    -20.25407295	     -0.06954553	      3.66544240	      4.36378419	     -2.61422605	      8.94129967	      0.00000000	      0.00000000	    -70.00000021	    -24.99999983	      7.05533423	     -0.69548476	     -0.89715230	      0.00000000	     18.86790426	    -70.00000021	    -22.65012274
